<svg width="58" height="61" viewBox="0 0 58 61" fill="none" xmlns="http://www.w3.org/2000/svg">
<path d="M1 21.0312V16.4269L28.6132 2L56.814 16.7339V21.0312" stroke="red" stroke-width="2"/>
<path d="M1 40.875V45.2601L28.6132 59L56.814 44.9677V40.875" stroke="red" stroke-width="2"/>
<path d="M3.61621 28.9057V24.8156L28.6128 12L54.1976 25.1489V29.2187" stroke="red" stroke-width="2"/>
<path d="M54.1976 32.3075V36.3047L28.6128 49.2188L3.61621 36.632V32.615V32" stroke="red" stroke-width="2"/>
<path d="M17.45 25.744C18.3513 25.744 19.1573 25.9477 19.868 26.355C20.5873 26.7537 21.1506 27.3127 21.558 28.032C21.9653 28.7427 22.169 29.5487 22.169 30.45C22.169 31.3513 21.9653 32.1617 21.558 32.881C21.1506 33.5917 20.5873 34.1507 19.868 34.558C19.1573 34.9567 18.3513 35.156 17.45 35.156C16.644 35.156 15.916 35.0173 15.266 34.74C14.6246 34.4627 14.0873 34.0597 13.654 33.531L14.993 32.283C15.6343 33.0023 16.4186 33.362 17.346 33.362C18.0133 33.362 18.5766 33.167 19.036 32.777C19.504 32.387 19.8073 31.8627 19.946 31.204H16.254V29.592H19.92C19.7726 28.968 19.4693 28.4697 19.01 28.097C18.5506 27.7243 17.996 27.538 17.346 27.538C16.4186 27.538 15.6343 27.8977 14.993 28.617L13.654 27.369C14.0873 26.8403 14.6246 26.4373 15.266 26.16C15.916 25.8827 16.644 25.744 17.45 25.744ZM28.9273 25.9C29.7333 25.9 30.4309 26.0343 31.0203 26.303C31.6183 26.5717 32.0776 26.953 32.3983 27.447C32.7189 27.941 32.8793 28.526 32.8793 29.202C32.8793 29.8693 32.7189 30.4543 32.3983 30.957C32.0776 31.451 31.6183 31.8323 31.0203 32.101C30.4309 32.361 29.7333 32.491 28.9273 32.491H27.0943V35H24.9883V25.9H28.9273ZM28.8103 30.775C29.4429 30.775 29.9239 30.6407 30.2533 30.372C30.5826 30.0947 30.7473 29.7047 30.7473 29.202C30.7473 28.6907 30.5826 28.3007 30.2533 28.032C29.9239 27.7547 29.4429 27.616 28.8103 27.616H27.0943V30.775H28.8103ZM41.1435 33.05H36.9185L36.1125 35H33.9545L38.0105 25.9H40.0905L44.1595 35H41.9495L41.1435 33.05ZM40.4805 31.451L39.0375 27.967L37.5945 31.451H40.4805Z" fill="red"/>
</svg>