<svg width="75" height="60" viewBox="0 0 75 60" fill="none" xmlns="http://www.w3.org/2000/svg">
<line x1="2.29344e-08" y1="40.625" x2="74.1279" y2="40.625" stroke="white" stroke-width="0.5"/>
<line x1="2.29344e-08" y1="19.7812" x2="75" y2="19.7813" stroke="white" stroke-width="0.5"/>
<path d="M9.59302 20.0312V15.4269L37.2062 1L65.407 15.7339V20.0312" stroke="white" stroke-width="0.5"/>
<path d="M9.59302 40.875V45.2601L37.2062 59L65.407 44.9677V40.875" stroke="white" stroke-width="0.5"/>
<path d="M12.2092 19.7182V15.6281L37.2058 2.8125L62.7906 15.9614V20.0312" stroke="white" stroke-width="0.5"/>
<path d="M62.7906 40.2762V44.2734L37.2058 57.1875L12.2092 44.6008V40.5837V39.9687" stroke="white" stroke-width="0.5"/>
<path d="M21.598 24.184C22.846 24.184 23.962 24.466 24.946 25.03C25.942 25.582 26.722 26.356 27.286 27.352C27.85 28.336 28.132 29.452 28.132 30.7C28.132 31.948 27.85 33.07 27.286 34.066C26.722 35.05 25.942 35.824 24.946 36.388C23.962 36.94 22.846 37.216 21.598 37.216C20.482 37.216 19.474 37.024 18.574 36.64C17.686 36.256 16.942 35.698 16.342 34.966L18.196 33.238C19.084 34.234 20.17 34.732 21.454 34.732C22.378 34.732 23.158 34.462 23.794 33.922C24.442 33.382 24.862 32.656 25.054 31.744H19.942V29.512H25.018C24.814 28.648 24.394 27.958 23.758 27.442C23.122 26.926 22.354 26.668 21.454 26.668C20.17 26.668 19.084 27.166 18.196 28.162L16.342 26.434C16.942 25.702 17.686 25.144 18.574 24.76C19.474 24.376 20.482 24.184 21.598 24.184ZM37.4896 24.4C38.6056 24.4 39.5716 24.586 40.3876 24.958C41.2156 25.33 41.8516 25.858 42.2956 26.542C42.7396 27.226 42.9616 28.036 42.9616 28.972C42.9616 29.896 42.7396 30.706 42.2956 31.402C41.8516 32.086 41.2156 32.614 40.3876 32.986C39.5716 33.346 38.6056 33.526 37.4896 33.526H34.9516V37H32.0356V24.4H37.4896ZM37.3276 31.15C38.2036 31.15 38.8696 30.964 39.3256 30.592C39.7816 30.208 40.0096 29.668 40.0096 28.972C40.0096 28.264 39.7816 27.724 39.3256 27.352C38.8696 26.968 38.2036 26.776 37.3276 26.776H34.9516V31.15H37.3276ZM54.4044 34.3H48.5544L47.4384 37H44.4504L50.0664 24.4H52.9464L58.5804 37H55.5204L54.4044 34.3ZM53.4864 32.086L51.4884 27.262L49.4904 32.086H53.4864Z" fill="white"/>
</svg>
