<svg width="54" height="54" viewBox="0 0 54 54" fill="none" xmlns="http://www.w3.org/2000/svg">
<g clip-path="url(#clip0)">
<path d="M31.0571 24.3L40.5209 12.825C44.9745 5.40002 37.1808 -4.04997 31.0571 4.04999" stroke="#FF4747" stroke-width="1.6"/>
<path d="M31.2585 24.3L21.7947 12.825C17.3412 5.40002 25.1349 -4.04997 31.2585 4.04999" stroke="#FF4747" stroke-width="1.6"/>
<path d="M9.34619 43.5581L18.1797 54L21.4922 50.7369H38.055C39.3801 50.7369 41.1836 49.4317 41.9197 48.7791C45.2323 44.2107 51.9678 34.9436 52.4095 34.4215C52.8512 33.8994 52.9616 33.3338 52.9616 33.1162C52.5199 30.5057 49.465 31.1583 47.9927 31.811L38.055 41.6003H29.7736C28.1174 40.9477 28.6695 38.9898 29.7736 38.9898L35.2946 38.3372C40.2634 37.0319 39.7113 32.4636 35.2946 31.8109L29.2216 31.811C23.1485 27.8952 18.1797 31.8109 17.6276 33.1162L9.34619 43.5581Z" stroke="#FF4747" stroke-width="1.6"/>
</g>
<defs>
<clipPath id="clip0">
<rect width="54" height="54" fill="white"/>
</clipPath>
</defs>
</svg>
