<svg width="48" height="48" viewBox="0 0 48 48" fill="none" xmlns="http://www.w3.org/2000/svg">
<path d="M39.7016 46.3997C39.5273 46.2253 39.2862 46.125 39.0388 46.125C38.7923 46.125 38.5504 46.2253 38.376 46.3997C38.2017 46.5741 38.1013 46.8159 38.1013 47.0625C38.1013 47.3091 38.2016 47.5509 38.376 47.7253C38.5504 47.8997 38.7923 48 39.0388 48C39.2854 48 39.5273 47.8997 39.7016 47.7253C39.8769 47.5509 39.9763 47.3091 39.9763 47.0625C39.9763 46.8159 39.8769 46.5741 39.7016 46.3997Z" fill="#FF4747"/>
<path d="M47.3455 15.7362C46.7798 14.9106 45.9253 14.3603 44.9396 14.1864C43.3439 13.9051 41.7838 14.705 41.0447 16.0749V6.18262C41.0447 4.17825 39.4139 2.54766 37.4096 2.54766C36.754 2.54766 36.1391 2.72297 35.6075 3.02784C35.3175 1.31166 33.8215 0 32.0241 0C30.2266 0 28.7307 1.31166 28.4408 3.02784C27.9091 2.72297 27.2942 2.54766 26.6386 2.54766C24.7543 2.54766 23.2006 3.98897 23.0213 5.82694C22.4975 5.53406 21.8947 5.36634 21.2531 5.36634C19.2488 5.36634 17.6182 6.99703 17.6182 9.00131C17.6182 9.51909 18.038 9.93881 18.5557 9.93881C19.0734 9.93881 19.4932 9.51909 19.4932 9.00131C19.4932 8.03081 20.2827 7.24134 21.2531 7.24134C22.1619 7.24134 22.912 7.93388 23.0036 8.81897V11.3183C23.0036 11.8361 23.4234 12.2558 23.9411 12.2558C24.4588 12.2558 24.8786 11.8361 24.8786 11.3183V6.18272C24.8786 5.21222 25.6682 4.42275 26.6386 4.42275C27.5474 4.42275 28.2975 5.11528 28.3891 6.00037V13.294C28.3891 13.3371 28.3987 13.6487 28.3987 13.6487C28.3987 14.1665 28.8185 14.5862 29.3362 14.5862C29.8539 14.5862 30.2737 14.1665 30.2737 13.6487V6.18262C30.2737 6.09872 30.2697 6.01566 30.2641 5.93316V3.63497C30.2641 2.66447 31.0537 1.875 32.0241 1.875C32.9945 1.875 33.784 2.66456 33.784 3.63497V5.93316C33.7784 6.01566 33.7745 6.09872 33.7745 6.18262V19.367C33.7745 19.8847 34.1943 20.3045 34.712 20.3045C35.2297 20.3045 35.6495 19.8847 35.6495 19.367L35.659 6.00019C35.7506 5.11509 36.5007 4.42256 37.4096 4.42256C38.3801 4.42256 39.1696 5.21212 39.1696 6.18253V20.0503C39.1696 20.736 39.6638 21.2934 40.3445 21.3757C41.0246 21.4583 41.6378 21.0342 41.8012 20.3681L42.5308 17.3914C42.7584 16.4637 43.6724 15.8667 44.6139 16.0328C45.0994 16.1184 45.5201 16.3895 45.7989 16.7961C46.0775 17.2027 46.1784 17.693 46.083 18.1766L44.6706 25.3394C44.1965 27.7437 43.0286 29.9291 41.2935 31.6595L38.3772 34.5675C38.2008 34.7434 38.1017 34.9823 38.1017 35.2313V43.5938C38.1017 44.1115 38.5215 44.5312 39.0392 44.5312C39.5569 44.5312 39.9767 44.1115 39.9767 43.5938V35.6205L42.6175 32.9873C44.6177 30.9927 45.9638 28.4736 46.5103 25.7022L47.9228 18.5394C48.1164 17.5574 47.9113 16.5619 47.3455 15.7362Z" fill="#FF4747"/>
<path d="M27.8055 28.9688C27.2879 28.9688 26.868 29.3885 26.868 29.9062V32.6558C26.868 35.7391 25.6656 38.6362 23.4822 40.8135L21.7057 42.5849C21.5293 42.7608 21.4302 42.9997 21.4302 43.2488V47.0625C21.4302 47.5803 21.85 48 22.3677 48C22.8854 48 23.3052 47.5803 23.3052 47.0625V43.6379L24.8061 42.1413C27.3449 39.6097 28.7431 36.241 28.7431 32.6558V29.9062C28.743 29.3885 28.3233 28.9688 27.8055 28.9688Z" fill="#FF4747"/>
<path d="M28.4685 25.9153C28.2941 25.7409 28.0522 25.6406 27.8057 25.6406C27.5591 25.6406 27.3172 25.7409 27.1429 25.9153C26.9686 26.0897 26.8682 26.3316 26.8682 26.5781C26.8682 26.8247 26.9685 27.0666 27.1429 27.2409C27.3172 27.4153 27.5591 27.5156 27.8057 27.5156C28.0522 27.5156 28.2941 27.4153 28.4685 27.2409C28.6429 27.0666 28.7432 26.8247 28.7432 26.5781C28.7432 26.3316 28.6429 26.0897 28.4685 25.9153Z" fill="#FF4747"/>
<path d="M25.263 15.0472C24.6773 15.0472 24.1254 15.1933 23.6407 15.4499C23.4322 13.7289 21.9635 12.3907 20.1871 12.3907C19.5869 12.3907 19.0216 12.5435 18.5282 12.8123C18.22 11.2067 16.8056 9.98959 15.1114 9.98959C13.4173 9.98959 12.0028 11.2067 11.6946 12.8123C11.2012 12.5435 10.6359 12.3907 10.0356 12.3907C8.11683 12.3907 6.5558 13.9518 6.5558 15.8706V24.9928C5.81396 23.7897 4.38736 23.1041 2.92936 23.361C1.98596 23.5273 1.16818 24.0542 0.626584 24.8444C0.0849898 25.6346 -0.111135 26.5874 0.0741148 27.5272L1.40536 34.2781C1.92258 36.9006 3.19636 39.2844 5.08918 41.1719L7.56221 43.6379V47.0625C7.56221 47.5803 7.98202 48 8.49971 48C9.0174 48 9.43721 47.5803 9.43721 47.0625V43.2487C9.43721 42.9996 9.33802 42.7608 9.16168 42.5849L6.41321 39.8441C4.78533 38.2208 3.68977 36.1707 3.24502 33.9153L1.91377 27.1644C1.82677 26.7229 1.91893 26.2754 2.17327 25.9042C2.42771 25.5331 2.8119 25.2856 3.25496 25.2075C4.11371 25.056 4.94883 25.6008 5.15649 26.4476L5.84424 29.2532C6.00465 29.9077 6.60577 30.3246 7.2759 30.2434C7.94508 30.1626 8.43071 29.6148 8.43071 28.9408V15.8705C8.43071 14.9856 9.15071 14.2656 10.0356 14.2656C10.8636 14.2656 11.5471 14.8961 11.6314 15.7023V22.5727C11.6314 23.0905 12.0512 23.5102 12.5689 23.5102C12.5704 23.5102 12.5719 23.51 12.5734 23.51C12.5749 23.51 12.5764 23.5102 12.5779 23.5102C13.0956 23.5102 13.5154 23.0905 13.5154 22.5727V15.8704C13.5154 15.7908 13.5118 15.7119 13.5064 15.6335V13.4693C13.5064 12.5844 14.2264 11.8644 15.1113 11.8644C15.9962 11.8644 16.7162 12.5843 16.7162 13.4693V15.6335C16.7109 15.7119 16.7072 15.7908 16.7072 15.8704V22.5727C16.7072 23.0905 17.1271 23.5102 17.6447 23.5102C17.6462 23.5102 17.6477 23.51 17.6492 23.51C17.6507 23.51 17.6522 23.5102 17.6537 23.5102C18.1714 23.5102 18.5912 23.0905 18.5912 22.5727V15.7023C18.6756 14.8961 19.359 14.2656 20.1871 14.2656C21.072 14.2656 21.792 14.9855 21.792 15.8705L21.7831 22.5728C21.7831 23.0906 22.2029 23.5103 22.7206 23.5103C22.7221 23.5103 22.7236 23.5101 22.7251 23.5101C22.7266 23.5101 22.7281 23.5103 22.7296 23.5103C23.2472 23.5103 23.6671 23.0906 23.6671 22.5728V18.3588C23.7514 17.5527 24.4349 16.9222 25.263 16.9222C26.1479 16.9222 26.8679 17.6421 26.8679 18.5271V22.9063C26.8679 23.4241 27.2877 23.8438 27.8054 23.8438C28.3231 23.8438 28.7429 23.4241 28.7429 22.9063V18.5271C28.7429 16.6083 27.1818 15.0472 25.263 15.0472Z" fill="#FF4747"/>
<path d="M13.9573 5.22029L9.01405 0.277042C8.64796 -0.0890515 8.05452 -0.0890515 7.68814 0.277042C7.32205 0.643136 7.32205 1.23676 7.68814 1.60285L12.6315 6.5461C12.8146 6.7292 13.0545 6.8207 13.2944 6.8207C13.5343 6.8207 13.7742 6.7291 13.9573 6.5461C14.3234 6.18001 14.3234 5.58639 13.9573 5.22029Z" fill="#FF4747"/>
<path d="M10.641 7.73257H8.35327C7.83558 7.73257 7.41577 8.15229 7.41577 8.67007C7.41577 9.18786 7.83558 9.60757 8.35327 9.60757H10.641C11.1586 9.60757 11.5785 9.18786 11.5785 8.67007C11.5785 8.15229 11.1586 7.73257 10.641 7.73257Z" fill="#FF4747"/>
<path d="M16.0383 0C15.5206 0 15.1008 0.419719 15.1008 0.9375V3.30169C15.1008 3.81947 15.5205 4.23919 16.0383 4.23919C16.556 4.23919 16.9758 3.81947 16.9758 3.30169V0.9375C16.9758 0.419719 16.556 0 16.0383 0Z" fill="#FF4747"/>
</svg>
