<svg width="54" height="54" viewBox="0 0 54 54" fill="none" xmlns="http://www.w3.org/2000/svg">
<g clip-path="url(#clip0)">
<path d="M47.4483 10.9335L27.1527 0.118974C26.8516 -0.0417216 26.4908 -0.0394664 26.1919 0.124612L6.45797 10.9391C6.13432 11.1167 5.93359 11.4562 5.93359 11.8255V25.952C5.94543 37.5644 12.8255 48.0699 23.4652 52.7222L26.2043 53.9159C26.4603 54.0275 26.7518 54.0281 27.0084 53.917L30.0949 52.5841C40.9319 48.0327 47.9822 37.4257 47.9834 25.6718V11.8255C47.9834 11.4522 47.7776 11.1089 47.4483 10.9335ZM45.9626 25.6718C45.9603 36.6155 39.3943 46.4901 29.3038 50.7251L29.297 50.7285L26.6092 51.8889L24.2737 50.87C14.3698 46.5397 7.96512 36.7615 7.95385 25.952V12.4237L26.6842 2.1584L45.9626 12.4311V25.6718Z" fill="#FF4747"/>
<path d="M19.2297 25.2969C18.8671 24.8723 18.2294 24.8221 17.8048 25.1847C17.3803 25.5467 17.3301 26.1849 17.6926 26.6089L23.03 32.8592C23.3863 33.2764 24.0105 33.3333 24.4357 32.9871L36.8661 22.874C37.2992 22.5222 37.3646 21.8856 37.0122 21.4526C36.6603 21.0201 36.0238 20.9542 35.5907 21.3066L23.9259 30.7961L19.2297 25.2969Z" fill="#FF4747"/>
</g>
<defs>
<clipPath id="clip0">
<rect width="54" height="54" fill="white"/>
</clipPath>
</defs>
</svg>
