<svg width="50" height="50" viewBox="0 0 50 50" fill="none" xmlns="http://www.w3.org/2000/svg">
<g clip-path="url(#clip0)">
<path d="M15.2923 34.669C13.8172 34.669 11.7741 31.8919 11.7741 26.6776C11.7741 22.9144 25.2994 9.33872 33.8248 1.66549C34.217 1.31263 34.2482 0.708388 33.8958 0.316239C33.5425 -0.0759099 32.9394 -0.107572 32.5469 0.245286C30.2245 2.33459 9.86328 20.8293 9.86328 26.6776C9.86328 33.1091 12.6606 36.5797 15.2923 36.5797C18.0744 36.5797 24.4018 37.9084 24.4018 40.0976C24.4018 41.424 23.4775 42.874 22.583 44.2762C21.4717 46.0184 20.3224 47.8204 21.1479 49.4718C21.3157 49.8068 21.6526 50.0002 22.0035 50.0002C22.1469 50.0002 22.2927 49.9677 22.4296 49.8991C22.9019 49.6633 23.093 49.0892 22.8568 48.6173C22.5154 47.9349 23.3692 46.5967 24.1939 45.3035C25.1865 43.746 26.3126 41.9817 26.3126 40.0976C26.3126 35.6127 17.1051 34.669 15.2923 34.669Z" fill="#FF4747"/>
<path d="M32.3827 34.8921C32.5349 34.5461 32.4693 34.1425 32.2148 33.8625C28.3914 29.661 26.0812 28.2221 24.4954 29.0483C22.7967 29.9322 23.3033 32.844 23.499 33.7153C23.6146 34.2291 24.1269 34.5552 24.6389 34.437C25.1538 34.3226 25.4777 33.8114 25.3629 33.2972C25.11 32.1577 25.1641 30.937 25.3701 30.7463C25.3842 30.744 26.2528 30.5307 29.2802 33.5505H27.464C26.9357 33.5505 26.5084 33.9781 26.5084 34.5057C26.5084 35.0332 26.9357 35.4612 27.464 35.4612H31.5083C31.8864 35.4612 32.2297 35.2381 32.3827 34.8921Z" fill="#FF4747"/>
<path d="M39.1316 29.1929C38.976 28.689 38.4431 28.4025 37.9376 28.5608C37.4329 28.7157 37.1499 29.2505 37.3052 29.7545C38.6998 34.2863 38.6361 37.525 37.1209 39.1215C35.2681 41.0719 31.6731 40.2037 31.6148 40.188C31.1063 40.058 30.5848 40.3662 30.4532 40.8774C30.3224 41.3882 30.6302 41.9085 31.1417 42.0397C31.2283 42.0622 32.211 42.3056 33.5042 42.3056C35.0587 42.3056 37.0606 41.9539 38.4984 40.4455C40.553 38.2906 40.7662 34.5045 39.1316 29.1929Z" fill="#FF4747"/>
</g>
<defs>
<clipPath id="clip0">
<rect width="50" height="50" fill="white"/>
</clipPath>
</defs>
</svg>
