<svg width="35" height="35" viewBox="0 0 35 35" fill="none" xmlns="http://www.w3.org/2000/svg">
<path d="M33.5125 7.7875C32.5631 6.09875 31.5328 5.78813 29.435 5.67C27.3394 5.52781 22.0697 5.46875 17.5044 5.46875C12.9303 5.46875 7.65844 5.52781 5.565 5.66781C3.47156 5.78813 2.43906 6.09656 1.48094 7.7875C0.503125 9.47406 0 12.3791 0 17.4934C0 17.4978 0 17.5 0 17.5C0 17.5044 0 17.5066 0 17.5066V17.5109C0 22.6034 0.503125 25.5303 1.48094 27.1994C2.43906 28.8881 3.46937 29.1944 5.56281 29.3366C7.65844 29.4591 12.9303 29.5312 17.5044 29.5312C22.0697 29.5312 27.3394 29.4591 29.4372 29.3387C31.535 29.1966 32.5653 28.8903 33.5147 27.2016C34.5013 25.5325 35 22.6056 35 17.5131C35 17.5131 35 17.5066 35 17.5022C35 17.5022 35 17.4978 35 17.4956C35 12.3791 34.5013 9.47406 33.5125 7.7875ZM13.125 24.0625V10.9375L24.0625 17.5L13.125 24.0625Z" fill="white"/>
</svg>
