<svg width="75" height="60" fill="none" xmlns="http://www.w3.org/2000/svg"><path stroke="#fff" stroke-width=".5" d="M0 40.625h74.128M0 19.781h75m-65.407.25v-4.604L37.206 1l28.201 14.734v4.297M9.593 40.875v4.385L37.206 59l28.201-14.032v-4.093"/><path d="M12.21 19.718v-4.09L37.205 2.812l25.585 13.15v4.07m0 20.244v3.997L37.207 57.187 12.209 44.602v-4.633" stroke="#fff" stroke-width=".5"/><path d="M21.598 24.184c1.248 0 2.364.282 3.348.846a5.964 5.964 0 012.34 2.322c.564.984.846 2.1.846 3.348 0 1.248-.282 2.37-.846 3.366a6.126 6.126 0 01-2.34 2.322c-.984.552-2.1.828-3.348.828-1.116 0-2.124-.192-3.024-.576a5.835 5.835 0 01-2.232-1.674l1.854-1.728c.888.996 1.974 1.494 3.258 1.494.924 0 1.704-.27 2.34-.81.648-.54 1.068-1.266 1.26-2.178h-5.112v-2.232h5.076c-.204-.864-.624-1.554-1.26-2.07-.636-.516-1.404-.774-2.304-.774-1.284 0-2.37.498-3.258 1.494l-1.854-1.728a5.835 5.835 0 012.232-1.674c.9-.384 1.908-.576 3.024-.576zm15.892.216c1.116 0 2.082.186 2.898.558.828.372 1.464.9 1.908 1.584.444.684.666 1.494.666 2.43 0 .924-.222 1.734-.666 2.43-.444.684-1.08 1.212-1.908 1.584-.816.36-1.782.54-2.898.54h-2.538V37h-2.916V24.4h5.454zm-.162 6.75c.876 0 1.542-.186 1.998-.558.456-.384.684-.924.684-1.62 0-.708-.228-1.248-.684-1.62-.456-.384-1.122-.576-1.998-.576h-2.376v4.374h2.376zm17.076 3.15h-5.85L47.438 37H44.45l5.616-12.6h2.88L58.58 37h-3.06l-1.116-2.7zm-.918-2.214l-1.998-4.824-1.998 4.824h3.996z" fill="#fff"/></svg>