<svg width="50" height="50" fill="none" xmlns="http://www.w3.org/2000/svg"><g clip-path="url(#clip0)" fill="#FF4747"><path d="M15.292 34.669c-1.475 0-3.518-2.777-3.518-7.991 0-3.764 13.525-17.34 22.05-25.013a.956.956 0 00-1.277-1.42C30.225 2.335 9.863 20.83 9.863 26.678c0 6.431 2.798 9.902 5.43 9.902 2.781 0 9.109 1.328 9.109 3.518 0 1.326-.925 2.776-1.819 4.178-1.111 1.742-2.26 3.544-1.435 5.196a.956.956 0 101.709-.855c-.342-.682.512-2.02 1.337-3.313.992-1.558 2.119-3.322 2.119-5.206 0-4.485-9.208-5.429-11.02-5.429z"/><path d="M32.383 34.892a.958.958 0 00-.168-1.03c-3.824-4.201-6.134-5.64-7.72-4.814-1.698.884-1.192 3.796-.996 4.667a.955.955 0 001.864-.418c-.253-1.14-.199-2.36.007-2.55.014-.003.883-.216 3.91 2.803h-1.816a.955.955 0 100 1.911h4.044a.956.956 0 00.875-.569zm6.749-5.699a.955.955 0 10-1.826.562c1.394 4.531 1.33 7.77-.185 9.366-1.853 1.95-5.448 1.083-5.506 1.067a.955.955 0 00-.473 1.852c.086.022 1.069.266 2.362.266 1.555 0 3.557-.352 4.994-1.86 2.055-2.155 2.268-5.941.634-11.253z"/></g><defs><clipPath id="clip0"><path fill="#fff" d="M0 0h50v50H0z"/></clipPath></defs></svg>