<svg width="48" height="48" fill="none" xmlns="http://www.w3.org/2000/svg"><path d="M39.702 46.4a.943.943 0 00-.663-.275c-.247 0-.489.1-.663.275a.945.945 0 00-.275.663c0 .246.1.488.275.662a.945.945 0 00.663.275.94.94 0 00.663-1.6zm7.644-30.664a3.667 3.667 0 00-2.406-1.55 3.707 3.707 0 00-3.895 1.889V6.183a3.64 3.64 0 00-3.635-3.635 3.61 3.61 0 00-1.802.48A3.64 3.64 0 0032.023 0a3.64 3.64 0 00-3.583 3.028 3.612 3.612 0 00-1.802-.48 3.64 3.64 0 00-3.618 3.279 3.612 3.612 0 00-1.768-.46A3.64 3.64 0 0017.618 9a.938.938 0 001.875 0c0-.97.79-1.76 1.76-1.76.909 0 1.659.693 1.75 1.578v2.5a.938.938 0 001.876 0V6.182c0-.97.79-1.76 1.76-1.76.908 0 1.659.692 1.75 1.577v7.294c0 .043.01.355.01.355a.938.938 0 001.875 0V6.183c0-.084-.004-.167-.01-.25V3.635c0-.97.79-1.76 1.76-1.76s1.76.79 1.76 1.76v2.298c-.006.083-.01.166-.01.25v13.184a.938.938 0 001.876 0L35.659 6a1.763 1.763 0 011.75-1.577c.971 0 1.76.79 1.76 1.76V20.05a1.32 1.32 0 001.175 1.326 1.32 1.32 0 001.457-1.008l.73-2.977a1.823 1.823 0 012.083-1.358c.485.085.906.357 1.185.763.279.407.38.897.284 1.38l-1.412 7.163a12.24 12.24 0 01-3.377 6.32l-2.917 2.909a.938.938 0 00-.275.663v8.363a.938.938 0 001.875 0V35.62l2.64-2.633a14.1 14.1 0 003.893-7.285l1.413-7.163a3.667 3.667 0 00-.578-2.803zM27.805 28.969a.938.938 0 00-.937.937v2.75a11.44 11.44 0 01-3.386 8.157l-1.776 1.772a.938.938 0 00-.276.664v3.813a.938.938 0 001.875 0v-3.424l1.501-1.497a13.306 13.306 0 003.937-9.485v-2.75a.938.938 0 00-.938-.937z" fill="#FF4747"/><path d="M28.468 25.915a.945.945 0 00-.662-.274c-.247 0-.489.1-.663.274a.945.945 0 00-.275.663c0 .247.1.489.275.663a.944.944 0 00.663.275.94.94 0 00.662-.275.944.944 0 00.275-.663c0-.246-.1-.488-.274-.663zm-3.205-10.868c-.586 0-1.138.146-1.622.403a3.484 3.484 0 00-3.454-3.06c-.6 0-1.165.153-1.659.422a3.485 3.485 0 00-3.417-2.822 3.485 3.485 0 00-3.416 2.822 3.458 3.458 0 00-1.66-.421 3.484 3.484 0 00-3.48 3.48v9.122A3.548 3.548 0 002.93 23.36a3.51 3.51 0 00-2.302 1.483 3.51 3.51 0 00-.553 2.683l1.331 6.751a13.35 13.35 0 003.684 6.894l2.473 2.466v3.425a.938.938 0 001.875 0v-3.814a.938.938 0 00-.275-.664l-2.749-2.74a11.48 11.48 0 01-3.168-5.93l-1.331-6.75a1.649 1.649 0 01.26-1.26 1.649 1.649 0 011.081-.698 1.665 1.665 0 011.901 1.24l.688 2.806c.16.655.762 1.072 1.432.99a1.297 1.297 0 001.155-1.302V15.87a1.605 1.605 0 013.2-.169v6.87c0 .518.42.938.938.938h.008c.518 0 .937-.42.937-.937V15.87c0-.08-.003-.158-.009-.236v-2.165c0-.885.72-1.605 1.605-1.605s1.605.72 1.605 1.605v2.165a3.508 3.508 0 00-.009.236v6.703c0 .517.42.937.938.937h.009c.517 0 .937-.42.937-.937v-6.87a1.607 1.607 0 011.596-1.437c.885 0 1.605.72 1.605 1.604l-.009 6.703c0 .518.42.937.938.937h.009c.517 0 .937-.42.937-.937v-4.214a1.607 1.607 0 011.596-1.437c.885 0 1.605.72 1.605 1.605v4.38a.938.938 0 001.875 0v-4.38a3.484 3.484 0 00-3.48-3.48zM13.957 5.22L9.014.277a.938.938 0 00-1.326 1.326l4.944 4.943a.934.934 0 001.325 0 .938.938 0 000-1.326zm-3.316 2.513H8.353a.938.938 0 000 1.875h2.288a.938.938 0 000-1.875zM16.038 0a.938.938 0 00-.937.938v2.364a.937.937 0 101.875 0V.937A.938.938 0 0016.038 0z" fill="#FF4747"/></svg>