<svg width="54" height="54" fill="none" xmlns="http://www.w3.org/2000/svg"><g clip-path="url(#clip0)" fill="#FF4747"><path d="M47.448 10.934L27.153.119a1.008 1.008 0 00-.961.006L6.458 10.939a1.01 1.01 0 00-.524.886v14.127a29.25 29.25 0 0017.531 26.77l2.74 1.194c.255.112.547.112.803.001l3.087-1.333a29.193 29.193 0 0017.888-26.912V11.825a1.01 1.01 0 00-.535-.891zm-1.485 14.738a27.176 27.176 0 01-16.66 25.053l-.006.003-2.688 1.16-2.335-1.018a27.226 27.226 0 01-16.32-24.918V12.424l18.73-10.266 19.279 10.273v13.24z"/><path d="M19.23 25.297a1.01 1.01 0 00-1.537 1.312l5.337 6.25c.356.417.98.474 1.406.128l12.43-10.113a1.01 1.01 0 10-1.275-1.567l-11.665 9.49-4.696-5.5z"/></g><defs><clipPath id="clip0"><path fill="#fff" d="M0 0h54v54H0z"/></clipPath></defs></svg>