<svg width="54" height="54" fill="none" xmlns="http://www.w3.org/2000/svg"><g clip-path="url(#clip0)" stroke="#FF4747" stroke-width="1.6"><path d="M31.057 24.3l9.464-11.475C44.974 5.4 37.18-4.05 31.057 4.05"/><path d="M31.259 24.3l-9.464-11.475C17.34 5.4 25.135-4.05 31.258 4.05M9.346 43.558L18.18 54l3.312-3.263h16.563c1.325 0 3.129-1.305 3.865-1.958 3.312-4.568 10.048-13.835 10.49-14.358.441-.522.552-1.087.552-1.305-.442-2.61-3.497-1.958-4.97-1.305l-9.937 9.79h-8.281c-1.657-.653-1.105-2.611 0-2.611l5.52-.653c4.97-1.305 4.417-5.873 0-6.526h-6.072c-6.074-3.916-11.042 0-11.594 1.305L9.346 43.558z"/></g><defs><clipPath id="clip0"><path fill="#fff" d="M0 0h54v54H0z"/></clipPath></defs></svg>