<svg width="58" height="61" fill="none" xmlns="http://www.w3.org/2000/svg"><path d="M1 21.031v-4.604L28.613 2l28.201 14.734v4.297M1 40.875v4.385L28.613 59l28.201-14.032v-4.093" stroke="#fff" stroke-width="2"/><path d="M3.616 28.906v-4.09L28.613 12l25.585 13.149v4.07m0 3.088v3.998L28.613 49.219 3.616 36.632V32" stroke="#fff" stroke-width="2"/><path d="M17.45 25.744c.901 0 1.707.204 2.418.611.72.399 1.283.958 1.69 1.677.407.71.611 1.517.611 2.418 0 .901-.204 1.712-.611 2.431a4.42 4.42 0 01-1.69 1.677c-.71.399-1.517.598-2.418.598-.806 0-1.534-.139-2.184-.416a4.213 4.213 0 01-1.612-1.209l1.339-1.248c.641.72 1.426 1.079 2.353 1.079.667 0 1.23-.195 1.69-.585.468-.39.771-.914.91-1.573h-3.692v-1.612h3.666c-.147-.624-.45-1.122-.91-1.495s-1.014-.559-1.664-.559c-.927 0-1.712.36-2.353 1.079l-1.339-1.248a4.2 4.2 0 011.612-1.209c.65-.277 1.378-.416 2.184-.416zm11.477.156c.806 0 1.504.134 2.093.403.598.269 1.058.65 1.378 1.144.32.494.481 1.079.481 1.755 0 .667-.16 1.252-.48 1.755-.321.494-.78.875-1.379 1.144-.59.26-1.287.39-2.093.39h-1.833V35h-2.106v-9.1h3.94zm-.117 4.875c.633 0 1.114-.134 1.443-.403.33-.277.494-.667.494-1.17 0-.511-.164-.901-.494-1.17-.33-.277-.81-.416-1.443-.416h-1.716v3.159h1.716zm12.334 2.275h-4.225L36.113 35h-2.158l4.056-9.1h2.08L44.16 35h-2.21l-.806-1.95zm-.663-1.599l-1.444-3.484-1.443 3.484h2.886z" fill="#fff"/></svg>