<svg width="35" height="35" fill="none" xmlns="http://www.w3.org/2000/svg"><path d="M33.513 7.787c-.95-1.688-1.98-1.999-4.078-2.117-2.096-.142-7.365-.201-11.93-.201-4.575 0-9.847.059-11.94.199-2.093.12-3.126.429-4.084 2.12C.503 9.473 0 12.378 0 17.492v.019c0 5.092.503 8.02 1.48 9.688.96 1.69 1.99 1.995 4.083 2.138 2.095.122 7.367.194 11.941.194 4.566 0 9.835-.072 11.933-.192 2.098-.142 3.128-.449 4.078-2.137C34.5 25.532 35 22.606 35 17.513v-.017c0-5.117-.499-8.022-1.487-9.708zM13.125 24.063V10.938L24.063 17.5l-10.938 6.563z" fill="#fff"/></svg>